# xmcd
# 
# Track frame offsets:
#     150
#     12484
#     26381
#     39126
#     54377
#     66715
#     80383
#     92696
#     106085
#     116546
#     131858
#     145731
#     157315
#     170434
#     180713
#     194412
# 
# Disc length: 2780
# 
# Revision: 2
# Processed by: cddbd v1.5.2PL0 Copyright (c) Steve Scherf et al.
# Submitted via: BonkEnc v1.0.15
# 
DISCID=d90ada10
DTITLE=Various Artist - CAN'T BE SATISFIED - Chess Chicago Blues 1948-1963
DYEAR=0
DGENRE=Blues
TTITLE0=Muddy Waters - I Can't Be Satisfied
TTITLE1=Robert Nighthawk - Sweet Black Angel
TTITLE2=Jimmy Rogers - That's All Right
TTITLE3=Floyd Jones - Dark Road
TTITLE4=Little Walter - Juke
TTITLE5=John Brim - Tough Times
TTITLE6=Jimmy Rogers - Chicago Bound
TTITLE7=Muddy Waters - Mannish Boy
TTITLE8=J.B. Lenoir - Don't Touch My Head
TTITLE9=Sonny Boy Williamson - Cross My Heart
TTITLE10=Little Walter - Confessin' The Blues
TTITLE11=Howlin' Wolf - Howlin' For My Baby
TTITLE12=Buddy Guy - Let Me Love You Baby
TTITLE13=Howlin' Wolf - Shake For Me
TTITLE14=Earl Hooker - Tanya
TTITLE15=Sonny Boy Williamson - Help Me
EXTD=Blies and Soul Records Vol.42
EXTT0=
EXTT1=
EXTT2=
EXTT3=
EXTT4=
EXTT5=
EXTT6=
EXTT7=
EXTT8=
EXTT9=
EXTT10=
EXTT11=
EXTT12=
EXTT13=
EXTT14=
EXTT15=
PLAYORDER=
